<?xml version="1.0" standalone="no"?>
<!DOCTYPE svg PUBLIC "-//W3C//DTD SVG 20010904//EN"
 "http://www.w3.org/TR/2001/REC-SVG-20010904/DTD/svg10.dtd">
<svg version="1.0" xmlns="http://www.w3.org/2000/svg"
 width="512.000000pt" height="512.000000pt" viewBox="0 0 512.000000 512.000000"
 preserveAspectRatio="xMidYMid meet">
<metadata>
Created by potrace 1.14, written by Peter Selinger 2001-2017
</metadata>
<g transform="translate(0.000000,512.000000) scale(0.100000,-0.100000)"
fill="#000000" stroke="none">
<path d="M2350 4993 c-395 -37 -738 -191 -1018 -458 -253 -240 -415 -533 -494
-896 -20 -92 -22 -133 -22 -349 -1 -230 1 -253 27 -375 72 -339 186 -667 366
-1055 197 -424 497 -871 885 -1320 130 -150 355 -389 377 -401 24 -12 74 33
252 226 484 525 854 1065 1081 1579 229 517 348 935 363 1281 18 439 -116 838
-396 1178 -226 273 -579 483 -934 557 -160 33 -352 46 -487 33z m860 -764 c60
-27 98 -64 126 -124 23 -48 24 -59 24 -285 l0 -235 49 -18 c59 -21 131 -96
149 -155 7 -21 12 -76 12 -120 0 -107 -5 -112 -121 -112 l-89 0 0 -390 c0
-329 -2 -396 -15 -420 -19 -36 -43 -50 -88 -50 l-35 0 -4 -98 c-2 -65 -8 -105
-17 -115 -11 -14 -33 -17 -115 -17 -66 0 -106 4 -114 12 -8 8 -12 48 -12 115
l0 103 -475 0 -475 0 0 -103 c0 -67 -4 -107 -12 -115 -8 -8 -48 -12 -114 -12
-130 0 -134 4 -134 137 l0 93 -36 0 c-26 0 -43 8 -65 29 l-29 29 0 401 0 401
-95 0 c-90 0 -95 1 -111 25 -14 21 -16 41 -11 106 9 134 67 223 172 261 l33
11 4 236 c3 270 9 294 87 364 77 70 35 66 786 66 663 1 681 0 725 -20z"/>
<path d="M2114 4019 c-17 -19 -17 -23 -3 -47 l15 -27 358 -3 c324 -2 361 -1
378 14 23 22 23 46 0 67 -17 15 -57 17 -374 17 -346 0 -355 -1 -374 -21z"/>
<path d="M1991 3729 c-71 -14 -137 -65 -174 -134 -21 -38 -22 -56 -25 -307
l-3 -268 701 0 701 0 -3 268 c-3 252 -4 269 -25 308 -12 22 -39 56 -59 74 -77
67 -59 65 -589 67 -264 1 -500 -3 -524 -8z"/>
<path d="M1807 2652 c-20 -22 -23 -102 -5 -120 15 -15 305 -17 328 -2 10 6 15
26 15 60 0 76 -9 80 -180 80 -125 0 -144 -2 -158 -18z"/>
<path d="M2850 2650 c-22 -22 -27 -78 -10 -111 10 -18 23 -19 168 -19 110 0
162 4 170 12 7 7 12 33 12 58 0 75 -11 80 -178 80 -129 0 -144 -2 -162 -20z"/>
</g>
</svg>
